<svg width="88" height="28" viewBox="0 0 88 28" fill="none" xmlns="http://www.w3.org/2000/svg">
<rect width="88" height="27.4021" fill="#242526"/>
<rect width="46.3227" height="27.4021" fill="#E10913"/>
<path d="M54.4913 9.78569V8.51182C54.4913 7.92789 54.6462 7.47934 54.948 7.17759C55.2497 6.87584 55.7081 6.72579 56.3132 6.72742H58.662L57.8138 3.88281H55.9185C52.777 3.88281 51.2471 5.43723 51.2389 8.65535V9.77754H48.3438V9.81505L49.1854 12.6319H51.2324L51.2047 24.4654L54.4554 24.4736L54.4848 12.6336L58.6522 12.645L57.8024 9.79059L54.4913 9.78569Z" fill="white"/>
<path d="M69.4633 11.366C68.3721 10.3433 67.2156 9.82458 65.1458 9.81806C65.0235 9.81806 64.9077 9.83763 64.7853 9.84089V9.81806L59.7681 9.80664L60.6261 12.661L64.6059 12.6708H64.7217C65.5373 12.6708 66.4523 12.8926 66.984 13.5125C67.4324 14.0442 67.6663 14.7241 67.6397 15.4192V16.0374L63.5914 16.0276C61.7629 16.0276 60.3097 16.5707 59.3506 17.3324C58.3915 18.0942 57.9837 19.2783 57.9805 20.6582C57.9805 21.981 58.4111 22.989 59.3082 23.7361C60.2053 24.4831 61.4954 24.8778 63.1298 24.8778C65.0545 24.8778 66.6154 24.2482 67.7669 22.9939L68.0932 22.6432V24.5271H70.9688L71.0829 15.7421C71.0829 13.855 70.5414 12.3821 69.4519 11.3627L69.4633 11.366ZM67.6397 19.1821C67.6397 19.9976 67.1047 20.6125 66.498 21.1068C65.8912 21.601 64.7299 21.8571 63.6583 21.8571C62.9226 21.8571 62.386 21.7135 62.0272 21.4248C61.8395 21.2838 61.6885 21.0999 61.5866 20.8885C61.4847 20.6771 61.435 20.4443 61.4416 20.2097C61.4416 19.4855 61.8168 18.6243 63.5816 18.6292L67.6397 18.6389V19.1821Z" fill="white"/>
<path d="M9.57476 9.72203C8.80078 9.70944 8.03177 9.84795 7.31082 10.1298C6.63682 10.3957 6.03699 10.8204 5.56231 11.3678L4.79407 9.70898H2.47957L2.44531 24.5649H5.66996L5.68627 16.9493C5.68627 14.1129 7.64357 13.0755 8.83099 13.0772H11.059L10.0641 9.72203H9.57476Z" fill="white"/>
<path d="M18.9502 21.6931C16.8592 21.6931 15.2982 20.659 14.804 18.3135H26.2526C26.3395 17.8496 26.3772 17.3778 26.3651 16.9059C26.3853 15.6423 26.0489 14.3987 25.3946 13.3175C24.7473 12.197 23.7977 11.2814 22.6544 10.6752C21.4784 10.0374 20.7428 9.71773 19.2291 9.71447C17.8387 9.68705 16.4645 10.0167 15.2379 10.6719C14.0979 11.2875 13.1527 12.2095 12.5091 13.3338C11.8457 14.5019 11.5046 15.8253 11.5207 17.1685C11.4974 18.517 11.8353 19.8472 12.4993 21.0211C13.1445 22.1503 14.094 23.0755 15.2395 23.6912C16.3389 24.2963 17.5687 24.5067 18.9551 24.5361V24.5475L24.7112 24.5606L23.8581 21.7013L18.9502 21.6931ZM16.5036 13.5263C17.2055 12.98 18.0741 12.6921 18.9633 12.7108C21.0293 12.7108 22.3342 13.7476 22.8779 15.8212H15.0405C15.3276 14.8426 15.8186 14.0678 16.5085 13.523" fill="white"/>
<path d="M80.4209 9.70453C78.7791 9.70977 77.1859 10.2619 75.893 11.2736V2.93555H72.957V17.17V24.5098H75.893V23.0631C77.1859 24.0748 78.7791 24.6269 80.4209 24.6322C81.4106 24.6468 82.3934 24.4645 83.3121 24.0958C84.2308 23.7272 85.067 23.1796 85.7721 22.4848C86.4772 21.79 87.0371 20.962 87.4193 20.0489C87.8015 19.1358 87.9983 18.1558 87.9983 17.1659C87.9983 16.176 87.8015 15.196 87.4193 14.2829C87.0371 13.3698 86.4772 12.5418 85.7721 11.847C85.067 11.1522 84.2308 10.6046 83.3121 10.236C82.3934 9.86732 81.4106 9.68501 80.4209 9.69964V9.70453ZM80.4209 21.675C79.5287 21.675 78.6565 21.4104 77.9148 20.9146C77.173 20.4188 76.595 19.7142 76.2538 18.8898C75.9125 18.0655 75.8235 17.1584 75.9979 16.2834C76.1723 15.4085 76.6024 14.6049 77.2336 13.9744C77.8648 13.3438 78.6688 12.9147 79.544 12.7412C80.4192 12.5678 81.3261 12.6578 82.1501 12.9999C82.9741 13.342 83.6781 13.9208 84.1731 14.6631C84.6681 15.4054 84.9318 16.2778 84.9308 17.17C84.9308 18.3658 84.4559 19.5127 83.6104 20.3584C82.765 21.2041 81.6183 21.6795 80.4225 21.6799" fill="white"/>
<path d="M42.8339 17.17V2.93555H39.898V11.2736C38.6044 10.2619 37.0107 9.70978 35.3684 9.70453C33.4074 9.73352 31.5365 10.5329 30.1599 11.9299C28.7834 13.327 28.0117 15.2095 28.0117 17.1708C28.0117 19.1321 28.7834 21.0146 30.1599 22.4117C31.5365 23.8087 33.4074 24.6081 35.3684 24.6371C37.0107 24.6318 38.6044 24.0797 39.898 23.068V24.5147H42.8339V17.1749V17.17ZM35.3684 21.6799C34.4764 21.6802 33.6043 21.416 32.8624 20.9207C32.1205 20.4253 31.5422 19.721 31.2006 18.897C30.859 18.0729 30.7695 17.1661 30.9433 16.2911C31.1172 15.4162 31.5466 14.6124 32.1772 13.9816C32.8079 13.3507 33.6115 12.921 34.4864 12.7468C35.3613 12.5727 36.2681 12.6619 37.0923 13.0032C37.9165 13.3445 38.6209 13.9225 39.1166 14.6642C39.6122 15.4059 39.8768 16.2779 39.8768 17.17C39.8768 18.3658 39.4018 19.5127 38.5564 20.3584C37.711 21.2041 36.5643 21.6795 35.3684 21.6799Z" fill="white"/>
</svg>
